<?xml version="1.0" encoding="utf-8"?>
<!-- Generator: Adobe Illustrator 25.0.0, SVG Export Plug-In . SVG Version: 6.00 Build 0)  -->
<svg version="1.1" id="Layer_1" xmlns="http://www.w3.org/2000/svg" xmlns:xlink="http://www.w3.org/1999/xlink" x="0px" y="0px"
	 viewBox="0 0 1230.97 412.34" style="enable-background:new 0 0 1230.97 412.34;" xml:space="preserve">
<g>
	<g>
		<g>
			<path style="opacity:0.36;fill:#6DBBB5;" d="M255.04,254.78c-34.22,0-34.22-17.28-68.44-17.28c-34.21,0-34.21,17.28-68.42,17.28
				c-31.36,0-34-14.51-60.57-16.93c0.76,1.19,1.34,2.5,1.67,3.88c1.72,7.17,3.72,14.27,6.45,21.13c0.04,0.09,0.06,0.16,0.09,0.23
				c0.05,0.1,0.1,0.22,0.17,0.37c0.31,0.68,0.62,1.37,0.95,2.04c0.76,1.58,1.57,3.14,2.42,4.68c1.73,3.12,3.63,6.15,5.77,9
				c0.07,0.1,0.13,0.17,0.18,0.25c0.1,0.11,0.24,0.28,0.47,0.56c0.52,0.63,1.05,1.26,1.59,1.88c1.07,1.23,2.17,2.42,3.28,3.6
				c2.22,2.34,4.54,4.59,6.89,6.81c2.56,2.42,5.15,4.8,7.71,7.21c1.17,1.1,2.32,2.23,3.53,3.28c0.42,0.37,0.85,0.73,1.28,1.09
				c0.1,0.06,0.29,0.19,0.64,0.43c5.6,3.86,11.6,7,17.49,10.38c5.8,3.32,11.18,7.18,17.31,9.91c0.36,0.15,1.12,0.48,1.25,0.53
				c0.76,0.3,1.52,0.6,2.28,0.89c1.52,0.58,3.06,1.14,4.59,1.68c3.16,1.11,6.34,2.17,9.53,3.19c6.07,1.93,14.2,3.92,18.94,4.37
				c7.28,0.69,14.55,0.24,21.84,0.35c3.74,0.05,7.46,0.36,11.2,0.57c0.05-0.05,0.09-0.09,0.14-0.14c0.25-0.24,0.5-0.47,0.77-0.68
				c0.26-0.22,0.53-0.44,0.81-0.64c0.58-0.43,1.19-0.82,1.82-1.17c0.26-0.14,0.51-0.28,0.77-0.4c0.03-0.01,0.06-0.03,0.11-0.05
				c0.28-0.14,0.58-0.27,0.87-0.39c0.31-0.13,0.63-0.25,0.96-0.36c9.17-3.08,18.43-5.84,27.57-8.99c0.91-0.31,1.81-0.64,2.7-0.95
				c0.08-0.05,0.21-0.12,0.41-0.22c0.04,0.04,0.21-0.05,0.43-0.19c0.34-0.33,1.03-0.94,1.16-1.06c3.46-3.07,6.88-5,10.99-6.94
				c4.43-2.09,4.17-2.52,7.82-6.2c0.3-0.3,0.6-0.6,0.9-0.9c2.5-2.49,5.1-4.94,7.8-7.2c2.1-1.75,4.27-3.48,6.56-5
				c0.77-0.51,1.58-1.01,2.39-1.46c0.4-0.22,0.66-0.38,0.81-0.46c0.76-0.72,1.47-1.51,2.13-2.34c0-0.01,0.01-0.03,0.01-0.04
				c-0.6,0.63-0.81,0.54,0.06-0.24c0.08-0.29,0.16-0.58,0.27-0.86c0.01-0.03,0.02-0.06,0.03-0.09c0.09-0.28,0.19-0.55,0.3-0.82
				c0-0.01,0.01-0.02,0.01-0.02c0.09-0.24,0.2-0.48,0.3-0.71c0.16-0.33,0.31-0.65,0.49-0.96c0.15-0.27,0.29-0.53,0.46-0.79
				c0.12-0.18,0.24-0.37,0.37-0.55c0.06-0.11,0.15-0.22,0.24-0.33c0.11-0.17,0.24-0.34,0.37-0.5c0.22-0.28,0.45-0.55,0.69-0.82
				c0.23-0.25,0.47-0.49,0.71-0.72c0.05-0.05,0.09-0.09,0.14-0.13c0.21-0.2,0.44-0.39,0.67-0.58c1.3-1.06,2.8-1.91,4.48-2.48
				c5.25-13.97,10.84-27.91,17.57-41.23C288.51,242.28,284.15,254.78,255.04,254.78z"/>
			<path style="opacity:0.36;fill:#6DBBB5;" d="M227.41,265.19c-34.21,0-34.21,17.29-68.42,17.29c-34.22,0-34.22-17.29-68.44-17.29
				c-9.54,0-16.41,1.35-22.11,3.28c0.3,0.57,0.6,1.15,0.92,1.71c1.73,3.12,3.63,6.15,5.77,9c0.07,0.1,0.13,0.17,0.18,0.25
				c0.1,0.11,0.24,0.28,0.47,0.56c0.52,0.63,1.05,1.26,1.59,1.88c1.07,1.23,2.17,2.42,3.28,3.6c2.22,2.34,4.54,4.59,6.89,6.81
				c2.56,2.42,5.15,4.8,7.71,7.21c1.17,1.1,2.32,2.23,3.53,3.28c0.42,0.37,0.85,0.73,1.28,1.09c0.1,0.06,0.29,0.19,0.64,0.43
				c5.6,3.86,11.6,7,17.49,10.38c5.8,3.32,11.18,7.18,17.31,9.91c0.36,0.15,1.12,0.48,1.25,0.53c0.76,0.3,1.52,0.6,2.28,0.89
				c1.52,0.58,3.06,1.14,4.59,1.68c3.16,1.11,6.34,2.17,9.53,3.19c6.07,1.93,14.2,3.92,18.94,4.37c7.28,0.69,14.55,0.24,21.84,0.35
				c3.74,0.05,7.46,0.36,11.2,0.57c0.05-0.05,0.09-0.09,0.14-0.14c0.25-0.24,0.5-0.47,0.77-0.68c0.27-0.23,0.53-0.44,0.81-0.64
				c0.58-0.43,1.19-0.82,1.82-1.17c0.25-0.14,0.5-0.28,0.77-0.4c0.03-0.01,0.06-0.03,0.11-0.05c0.28-0.14,0.58-0.27,0.87-0.39
				c0.32-0.13,0.64-0.25,0.96-0.36c9.17-3.08,18.43-5.84,27.57-8.99c0.91-0.31,1.81-0.64,2.7-0.95c0.08-0.05,0.21-0.12,0.41-0.22
				c0.04,0.04,0.21-0.05,0.43-0.19c0.34-0.33,1.03-0.94,1.16-1.06c3.46-3.07,6.88-5,10.99-6.94c4.43-2.09,4.17-2.52,7.82-6.2
				c0.3-0.3,0.6-0.6,0.9-0.9c2.5-2.49,5.1-4.94,7.8-7.2c2.1-1.75,4.27-3.48,6.56-5c0.77-0.51,1.58-1.01,2.39-1.46
				c0.4-0.22,0.66-0.38,0.81-0.46c0.76-0.72,1.47-1.51,2.13-2.34c0-0.01,0.01-0.03,0.01-0.04c-0.6,0.63-0.81,0.54,0.06-0.24
				c0.08-0.29,0.16-0.58,0.27-0.86c0.01-0.03,0.02-0.06,0.03-0.09c0.09-0.28,0.19-0.56,0.3-0.82c0-0.01,0.01-0.02,0.01-0.02
				c0.1-0.25,0.2-0.49,0.3-0.71c0.16-0.33,0.31-0.65,0.49-0.96c0.15-0.27,0.29-0.53,0.46-0.79c0.12-0.18,0.24-0.37,0.37-0.55
				c0.06-0.11,0.15-0.22,0.24-0.33c0.11-0.17,0.23-0.34,0.37-0.5c0.22-0.28,0.45-0.55,0.69-0.82c0.23-0.25,0.47-0.49,0.71-0.72
				c0.05-0.05,0.09-0.09,0.14-0.13c0.22-0.2,0.44-0.4,0.67-0.58c0.05-0.05,0.09-0.08,0.14-0.12
				C261.45,279.8,258.9,265.19,227.41,265.19z"/>
			<path style="fill:#6DBBB5;" d="M255.04,307.25c-34.22,0-34.22-17.28-68.44-17.28c-34.21,0-34.21,17.28-68.42,17.28
				c-5.95,0-10.87-0.52-15.11-1.39c4.91,3.17,10.07,5.9,15.14,8.81c5.8,3.32,11.18,7.18,17.31,9.91c0.36,0.15,1.12,0.48,1.25,0.53
				c0.76,0.3,1.52,0.6,2.28,0.89c1.52,0.58,3.06,1.14,4.59,1.68c3.16,1.11,6.34,2.17,9.53,3.19c6.07,1.93,14.2,3.92,18.94,4.37
				c7.28,0.69,14.55,0.24,21.84,0.35c3.74,0.05,7.46,0.36,11.2,0.57c0.05-0.05,0.09-0.09,0.14-0.14c0.25-0.24,0.5-0.47,0.77-0.68
				c0.26-0.22,0.53-0.44,0.81-0.64c0.58-0.43,1.19-0.82,1.82-1.17c0.26-0.14,0.51-0.28,0.77-0.4c0.03-0.01,0.06-0.03,0.11-0.05
				c0.28-0.14,0.58-0.27,0.87-0.39c0.31-0.13,0.63-0.25,0.96-0.36c9.17-3.08,18.43-5.84,27.57-8.99c0.91-0.31,1.81-0.64,2.7-0.95
				c0.08-0.05,0.21-0.12,0.41-0.22c0.04,0.04,0.21-0.05,0.43-0.19c0.34-0.33,1.03-0.94,1.16-1.06c3.46-3.07,6.88-5,10.99-6.94
				c4.43-2.09,4.17-2.52,7.82-6.2c0.3-0.3,0.6-0.6,0.9-0.9C260.84,307.12,258.07,307.25,255.04,307.25z"/>
			<path style="fill:#1A304D;" d="M354.29,289.13c-16.11-9.29-22.81-1.84-31.46-17.23c10.48-20.93,16.39-44.52,16.39-69.47
				c0-24.16-5.53-47.05-15.38-67.48c8.66-15.56,15.36-8.04,31.52-17.37c16.04-9.26,10.73-18.58,10.38-19.16
				c-0.01-0.03-0.02-0.03-0.02-0.03c-0.33-0.59-5.75-9.84-21.79-0.58c-16.12,9.31-13,18.84-30.68,18.63
				c-10.29-15.5-23.29-29.05-38.3-39.99c0,0,0,0,0,0c0.01-0.01,0.01-0.01,0.02-0.02c-15.96-12-34.15-20.91-53.54-26.12
				c-0.03-0.16-0.08-0.31-0.12-0.47c-0.23-0.86-0.48-1.7-0.76-2.53c-0.66-1.94-1.47-3.78-2.42-5.54c-1.53-2.87-3.42-5.52-5.56-7.92
				c-0.35-0.4-0.7-0.79-1.09-1.17c-1.73-1.82-3.61-3.5-5.61-5.04c-3.39-2.61-7.1-4.83-10.97-6.69c-0.42-0.2-0.84-0.4-1.27-0.59
				c-0.41-0.19-0.83-0.37-1.24-0.55c-2.29-0.99-4.61-1.86-6.96-2.6c-2.42-0.77-4.85-1.42-7.26-1.94c-1-0.21-1.98-0.41-2.98-0.58
				c0.52-0.52,1.09-0.99,1.7-1.41c0.58-0.39,1.19-0.73,1.82-1.02c0.4-0.17,0.81-0.31,1.22-0.45c1.09-0.34,2.25-0.52,3.47-0.52
				c1.63,0,3.14,0.32,4.54,0.91c0.7,0.3,1.37,0.67,2,1.1c0.78,0.52,1.49,1.14,2.13,1.84c2.79,1.12,5.54,2.4,8.21,3.87
				c1.89,1.04,3.75,2.19,5.54,3.42c0.18,0.11,0.35,0.24,0.53,0.36v-0.27c-0.05-2.99-0.69-5.88-1.8-8.51
				c-1.75-4.12-4.65-7.61-8.31-10.08c-1.26-0.86-2.63-1.6-4.08-2.19c-0.63-0.27-1.27-0.5-1.92-0.7C188.09,0.36,185.8,0,183.43,0
				c-2.49,0-4.91,0.4-7.17,1.14c-0.59,0.2-1.19,0.42-1.76,0.66c-4.12,1.75-7.61,4.65-10.09,8.31c-1.23,1.82-2.21,3.85-2.88,6
				c-0.64,2.03-0.99,4.19-1.03,6.41c-0.01,0.14-0.01,0.28-0.01,0.42c0,3.15,0.64,6.18,1.81,8.93c1.75,4.11,4.65,7.61,8.31,10.08
				c0.69,0.47,1.42,0.91,2.19,1.31c0.62,0.32,1.25,0.62,1.89,0.88v2.23c0,0,0,0,0,0c-6.36,0.83-16.28,2.27-19.51,2.87
				c-41.51,7.63-77.31,31.78-100.32,65.34c-17.88,0.3-14.68-9.27-30.86-18.62c-16.04-9.27-21.46,0-21.79,0.59
				c-0.02,0.02-0.03,0.03-0.03,0.03c-0.34,0.58-5.65,9.89,10.39,19.16c16.11,9.3,22.82,1.85,31.46,17.23
				c-10.48,20.93-16.39,44.52-16.39,69.48c0,24.16,5.54,47.05,15.39,67.47c-8.67,15.57-15.37,8.04-31.53,17.37
				c-16.04,9.26-10.73,18.58-10.39,19.17c0.02,0.03,0.03,0.03,0.03,0.03c0.33,0.58,5.74,9.84,21.79,0.58
				c16.12-9.32,13-18.85,30.68-18.63c25.89,38.96,68.82,65.66,118.08,69.35c9.13,15.28-0.74,17.32-0.74,35.98
				c0,18.52,10.73,18.59,11.41,18.58c0.02,0,0.03,0,0.03,0c0.68,0.01,11.4-0.06,11.4-18.58c0-18.6-9.81-20.68-0.82-35.83
				c49.4-2.99,92.64-29.1,119.05-67.63c17.89-0.29,14.68,9.28,30.86,18.62c16.04,9.26,21.46,0,21.79-0.59
				c0.02-0.02,0.02-0.03,0.02-0.03C365.02,307.71,370.33,298.4,354.29,289.13z M42.53,246.87c-4.43-14.03-6.83-28.96-6.83-44.44
				c0-14.73,2.17-28.96,6.21-42.4l10.14,5.86c-3.24,11.63-4.98,23.89-4.98,36.54c0,13.4,1.95,26.35,5.58,38.6L42.53,246.87z
				 M292.3,102.67l-10.1,5.82c-5.72-6.02-11.99-11.5-18.72-16.4c0,0,0,0,0,0c-11.26-8.19-23.8-14.69-37.28-19.15
				c-1.18-0.39-3.76-1.38-5.54-1.99c0.08-0.21,0.14-0.42,0.19-0.63c0.97-3.19,1.57-6.49,1.68-9.88c0.01-0.28,0.02-0.56,0.02-0.84
				c1.04,0.3,2.18,0.63,2.49,0.72c12.52,3.74,24.21,9.73,35.31,16.42c3.29,1.97,6.5,4.08,9.61,6.29
				C278.14,88.84,285.65,95.42,292.3,102.67z M178.64,196.23c0.34,0.29,0.64,0.61,0.94,0.91c0.31,0.31,0.63,0.6,0.92,0.92
				c0.94,1,1.83,2.05,2.67,3.14c0.73-0.86,1.49-1.7,2.3-2.5c1.06-1.06,2.2-2.05,3.37-2.98c1.18-0.93,2.42-1.78,3.67-2.58
				c1.27-0.78,2.57-1.51,3.9-2.15c-1.19,0.87-2.38,1.75-3.52,2.69c-1.15,0.92-2.26,1.89-3.32,2.88c-1.07,1-2.07,2.06-3.03,3.15
				c-0.97,1.09-1.87,2.22-2.71,3.39l-0.65,0.89l-0.73-0.89c-1.05-1.29-2.14-2.54-3.32-3.71c-1.18-1.17-2.41-2.3-3.71-3.33
				c-2.59-2.09-5.4-3.92-8.32-5.57c-2.92-1.65-5.97-3.1-9.06-4.47c-3.09-1.36-6.26-2.58-9.44-3.84c0.83,0.19,1.66,0.36,2.49,0.56
				l1.25,0.3c0.42,0.1,0.82,0.22,1.24,0.34c0.81,0.23,1.64,0.44,2.47,0.7l2.44,0.8c3.25,1.1,6.43,2.42,9.49,4
				c3.06,1.59,6,3.45,8.7,5.65C177.35,195.06,178,195.66,178.64,196.23z M192.18,72.84c1.45,0.18,2.67,0.33,3.42,0.42
				c5.1,0.58,10.15,1.47,15.11,2.65c-1.31,2.36-2.85,4.62-4.54,6.74c-1.62,2.04-3.42,3.98-5.33,5.87c-1.91,1.88-3.93,3.71-6.01,5.52
				c-0.88,0.75-1.75,1.5-2.64,2.25V72.84z M173.76,29.45c-0.63-0.92-1.12-1.95-1.46-3.04c-0.34-1.09-0.53-2.25-0.53-3.47
				c0-0.52,0.03-1.03,0.1-1.52c3.73,0.54,7.59,1.42,11.38,2.63c0.92,0.3,1.84,0.61,2.76,0.94c2.64,0.97,5.24,2.1,7.71,3.41
				c1.06,0.55,2.1,1.13,3.12,1.75c2.24,1.36,4.36,2.87,6.3,4.52c2.43,2.07,4.59,4.35,6.38,6.85c1.22,1.7,2.26,3.48,3.14,5.38
				c0.22,0.47,0.42,0.97,0.61,1.47c-6.92-1.47-13.96-2.47-21.1-2.97v-1.25c0.06-0.03,0.13-0.04,0.19-0.08
				c0.58-0.25,1.15-0.51,1.71-0.81c2.51-1.32,4.74-3.09,6.59-5.2c-0.21-0.18-0.42-0.36-0.64-0.54c-2.13-1.76-4.52-3.37-7.09-4.79
				c-0.61-0.35-1.24-0.67-1.87-0.99c-0.36,0.31-0.73,0.6-1.13,0.87c-0.92,0.63-1.95,1.13-3.04,1.46c-1.09,0.34-2.25,0.53-3.47,0.53
				c-1.62,0-3.14-0.32-4.54-0.92C176.81,32.81,175.02,31.31,173.76,29.45z M150.96,58.3v11.68c-25.36,6.22-47.95,19.55-65.54,37.74
				l-10.11-5.84C95.24,80.46,121.43,64.95,150.96,58.3z M150.96,346.57c-28.8-6.48-54.45-21.4-74.19-42.03l10.16-5.86
				c17.36,17.41,39.39,30.16,64.03,36.21V346.57z M218.02,346.08v-11.72c24.15-6.33,45.7-19.15,62.69-36.45l10.14,5.86
				C271.48,324.28,246.32,339.26,218.02,346.08z M306.35,239.34c-4.68,15.56-12.23,29.87-22.05,42.33
				c-7.67,9.76-16.73,18.37-26.88,25.55h-0.02c0,0-0.01,0-0.01,0.01c-20.5,14.5-45.39,23.17-72.27,23.52
				c-28.69,0.37-55.22-8.56-76.72-24.02h-0.01c0,0-0.01,0-0.01-0.01c-14.55-10.47-26.8-23.9-35.87-39.46
				c-5.28-9.05-9.49-18.82-12.43-29.14c-3.17-11.06-4.9-22.76-4.98-34.87c-0.41-65.37,48.33-119.65,111.35-128.01
				c0.31-0.03,4.85-0.41,8.21-0.69c0,0,0,0,0,0v66.26c0,19.88-16.11,35.99-35.99,35.99h-5.93c0,0-14.28-0.25-18.53-8.17
				c-0.79-1.47-0.51-3.77,2.05-5.83c0,0-16.28-2.52-24.16-15.7c0,0,5.22,30.11,44.76,38.9c35.26,7.83,41.28,19.39,46.55,29.41
				c5.26-10.02,11.28-21.57,46.55-29.41c39.54-8.79,44.76-38.9,44.76-38.9c-7.88,13.18-24.17,15.7-24.17,15.7
				c2.57,2.06,2.85,4.37,2.06,5.83c-4.26,7.92-18.53,8.17-18.53,8.17h-5.93c-19.88,0-35.99-16.11-35.99-35.99v-35.13
				c2.42-2.03,4.89-4.08,7.34-6.21c4.32-3.73,8.58-7.71,12.27-12.33c1.55-1.95,2.99-4.01,4.3-6.18c0.58-0.97,1.13-1.95,1.64-2.96
				c4.03,1.52,10.25,4.07,12.38,4.91c47.75,18.71,81.64,65.24,81.64,119.53C311.75,215.26,309.86,227.65,306.35,239.34z
				 M315.11,166.94l10.16-5.87c3.83,13.12,5.91,27,5.91,41.36c0,15.1-2.29,29.68-6.51,43.41L314.54,240
				c3.43-11.94,5.27-24.53,5.27-37.56C319.81,190.15,318.16,178.27,315.11,166.94z"/>
		</g>
	</g>
	<g>
		<g>
			<g>
				<path style="fill:#1A304D;" d="M627.73,291.32h-4.47l-4.2-11.15l-3.48-10.61l-3.47,10.65l-4.15,11.1h-4.42l-11.46-31.64h5.64
					l8.03,24.33l8.17-24.33h3.25l8.35,24.33l7.85-24.33h5.64L627.73,291.32z"/>
				<path style="fill:#1A304D;" d="M674.08,291.27h-23.33c0-10.52,0-21.08,0-31.59h23.2v4.92h-18.14v8.53h17.42v4.69h-17.42v8.49
					h18.28V291.27z"/>
				<path style="fill:#1A304D;" d="M702.02,259.68c6,0,10.74,2.75,10.74,9.03c0,2.66-1.4,5.06-4.38,6.27
					c3.79,1.13,5.37,4.87,5.37,7.27c0,6.91-5.51,9.03-11.74,9.03c-4.92,0-9.57,0-14.49,0v-31.59H702.02z M692.54,272.77h9.52
					c3.79,0,5.69-1.49,5.69-3.97c0-2.21-1.94-4.56-5.73-4.56h-9.48V272.77z M692.54,286.58h9.48c2.8,0,6.68-0.9,6.68-4.38
					c0-3.39-3.75-4.92-6.63-4.92c-3.21,0-6.32,0-9.52,0V286.58z"/>
				<path style="fill:#1A304D;" d="M763.22,266.67c-1.49-2.17-4.51-3.48-7.81-3.52c-4.24,0-7.31,1.76-7.31,4.78
					c0,3.07,3.52,3.93,7.67,4.51c6.5,0.9,12.68,2.71,12.68,9.79c-0.04,7.09-6.5,9.75-13.09,9.75c-6.05,0-10.7-1.85-13.59-7.18
					l3.79-2.53c2.26,3.84,6.18,5.19,9.84,5.19c3.79,0,7.99-1.26,7.99-5.24c0-3.43-3.66-4.6-8.08-5.19
					c-6.27-0.86-12.23-2.44-12.23-9.21c-0.04-6.54,6.5-9.07,12.19-9.07c4.56,0,9.12,1.08,11.78,5.33L763.22,266.67z"/>
				<path style="fill:#1A304D;" d="M811.47,275.61c0,8.53-5.19,16.34-16.16,16.34s-16.16-7.99-16.16-16.29
					c0-9.61,6.72-16.56,16.25-16.56C806.19,259.14,811.47,267.08,811.47,275.61z M795.31,287.3c7.85,0,11.15-5.55,11.15-11.6
					c0-5.82-3.34-11.87-11.06-12.01c-7.31,0-11.24,5.1-11.24,12.01C784.25,281.3,787.5,287.3,795.31,287.3z"/>
				<path style="fill:#1A304D;" d="M829.48,259.68v26.9h16.65v4.69h-21.71v-31.59H829.48z"/>
				<path style="fill:#1A304D;" d="M883.5,259.72v18.46c0,9.3-6.14,13.95-13.77,13.68c-7.04-0.18-13.04-4.69-13.04-13.68v-18.46
					h5.01v18.46c0,5.73,3.34,8.85,8.03,9.03c5.05,0.27,8.76-3.02,8.76-9.03v-18.46H883.5z"/>
				<path style="fill:#1A304D;" d="M905.17,264.24h-10.38v-4.56c9.07,0,16.75,0,25.82,0v4.56h-10.34v27.04h-5.1V264.24z"/>
				<path style="fill:#1A304D;" d="M932.29,291.27v-31.59h5.01v31.59H932.29z"/>
				<path style="fill:#1A304D;" d="M982.57,275.61c0,8.53-5.19,16.34-16.16,16.34s-16.16-7.99-16.16-16.29
					c0-9.61,6.72-16.56,16.25-16.56C977.29,259.14,982.57,267.08,982.57,275.61z M966.41,287.3c7.85,0,11.15-5.55,11.15-11.6
					c0-5.82-3.34-11.87-11.06-12.01c-7.31,0-11.24,5.1-11.24,12.01C955.35,281.3,958.6,287.3,966.41,287.3z"/>
				<path style="fill:#1A304D;" d="M1017.32,282.15v-22.48h5.05v31.59h-3.84l-17.92-22.3v22.3h-5.1v-31.59h3.88L1017.32,282.15z"/>
				<path style="fill:#1A304D;" d="M1056.14,266.67c-1.49-2.17-4.51-3.48-7.81-3.52c-4.24,0-7.31,1.76-7.31,4.78
					c0,3.07,3.52,3.93,7.67,4.51c6.5,0.9,12.68,2.71,12.68,9.79c-0.04,7.09-6.5,9.75-13.09,9.75c-6.05,0-10.7-1.85-13.59-7.18
					l3.79-2.53c2.26,3.84,6.18,5.19,9.84,5.19c3.79,0,7.99-1.26,7.99-5.24c0-3.43-3.66-4.6-8.08-5.19
					c-6.27-0.86-12.23-2.44-12.23-9.21c-0.04-6.54,6.5-9.07,12.19-9.07c4.56,0,9.12,1.08,11.78,5.33L1056.14,266.67z"/>
			</g>
		</g>
		<g>
			<g>
				<path style="fill:#6DBBB5;" d="M476.16,121.68c10.25,0,18.84,1.32,25.76,3.95c6.92,2.64,12.46,6.27,16.61,10.89
					s7.1,10.07,8.84,16.34c1.74,6.27,2.61,13.03,2.61,20.29c0,7.26-0.87,14.02-2.61,20.29c-1.74,6.27-4.69,11.71-8.84,16.34
					s-9.69,8.26-16.61,10.89c-6.92,2.64-15.51,3.95-25.76,3.95H429.1c-1.85,0-3.41-0.62-4.69-1.87c-1.28-1.24-1.92-2.71-1.92-4.4
					v-0.15c0-2.49,1.18-4.38,3.54-5.67l3.38-1.49c2.46-1.29,3.69-3.23,3.69-5.82v-64.15c0-1.19-0.33-2.31-1-3.36
					c-0.67-1.04-1.56-1.81-2.69-2.31c-0.41-0.2-0.82-0.4-1.23-0.6c-0.41-0.2-0.77-0.4-1.08-0.6c-0.41-0.2-0.77-0.35-1.08-0.45
					c-2.36-1.19-3.54-3.08-3.54-5.67c0-1.79,0.64-3.31,1.92-4.55c1.28-1.24,2.85-1.86,4.69-1.86H476.16z M470,211.8
					c5.02,0,9.33-0.97,12.92-2.91c3.59-1.94,6.51-4.65,8.77-8.13c2.25-3.48,3.89-7.58,4.92-12.31c1.02-4.72,1.54-9.82,1.54-15.29
					c0-5.57-0.51-10.69-1.54-15.37c-1.03-4.67-2.67-8.75-4.92-12.23c-2.26-3.48-5.18-6.19-8.77-8.13c-3.59-1.94-7.9-2.91-12.92-2.91
					h-5.08c-0.72,0-1.33,0.25-1.84,0.75c-0.51,0.5-0.77,1.14-0.77,1.94v72.06c0,0.7,0.25,1.29,0.77,1.79
					c0.51,0.5,1.13,0.75,1.84,0.75H470z"/>
				<path style="fill:#6DBBB5;" d="M589.81,120.34c9.94,0,18.48,1.39,25.61,4.18c7.12,2.79,12.97,6.57,17.53,11.34
					c4.56,4.77,7.84,10.22,9.84,16.34c2,6.12,3,12.46,3,19.02c0,0.7,0,1.34,0,1.94c-0.1,7.26-1.33,14.1-3.69,20.51
					c-2.36,6.42-5.92,12.01-10.69,16.79c-4.77,4.77-10.76,8.55-17.99,11.34c-7.23,2.79-15.82,4.18-25.76,4.18
					c-9.95,0-18.48-1.39-25.61-4.18c-7.13-2.78-12.97-6.56-17.53-11.34c-4.56-4.77-7.84-10.29-9.84-16.56c-2-6.27-3-12.83-3-19.69
					c0-0.4,0-0.75,0-1.04c0.2-7.26,1.46-14.1,3.77-20.51c2.31-6.42,5.84-12.01,10.61-16.78c4.77-4.77,10.76-8.55,17.99-11.34
					C571.28,121.74,579.86,120.34,589.81,120.34z M590.58,213.14c4.51,0,8.33-1.04,11.46-3.13c3.13-2.09,5.64-4.95,7.54-8.58
					c1.9-3.63,3.13-7.51,3.69-11.64c0.56-4.13,0.85-7.98,0.85-11.56c0-1.69-0.05-3.38-0.15-5.07c-0.31-5.57-1.13-10.77-2.46-15.59
					c-1.33-4.82-3.15-9.03-5.46-12.61c-2.31-3.58-5.18-6.42-8.61-8.5c-3.44-2.09-7.41-3.13-11.92-3.13c-4.51,0-8.33,1.04-11.46,3.13
					c-3.13,2.09-5.61,4.92-7.46,8.5c-1.85,3.58-3.05,7.34-3.61,11.26c-0.56,3.93-0.85,7.59-0.85,10.97c0,1.99,0.05,3.98,0.15,5.97
					c0.31,5.47,1.13,10.64,2.46,15.52c1.33,4.88,3.15,9.13,5.46,12.76c2.31,3.63,5.15,6.49,8.54,8.58S586.07,213.14,590.58,213.14z"
					/>
				<path style="fill:#6DBBB5;" d="M737.91,196.28c0.92-0.9,1.92-1.52,3-1.87c1.08-0.35,2.02-0.52,2.85-0.52
					c0.41,0,1,0.07,1.77,0.22c0.77,0.15,1.54,0.62,2.31,1.42c0.77,0.8,1.15,1.94,1.15,3.43c0,1.99-0.92,4.5-2.77,7.53
					c-1.84,3.04-4.64,5.99-8.38,8.88c-3.74,2.89-8.46,5.37-14.15,7.46s-12.43,3.13-20.22,3.13c-8.82,0-16.69-1.24-23.61-3.73
					c-6.92-2.49-12.79-5.97-17.61-10.44c-4.82-4.48-8.49-9.87-11-16.19c-2.51-6.31-3.77-13.35-3.77-21.11
					c0-8.35,1.38-15.89,4.15-22.6c2.77-6.71,6.59-12.41,11.46-17.08c4.87-4.67,10.69-8.25,17.46-10.74
					c6.77-2.49,14.15-3.73,22.15-3.73c8.3,0,15.33,0.97,21.07,2.91c5.74,1.94,10.05,4,12.92,6.19c5.23,3.88,8.66,7.61,10.3,11.19
					c1.64,3.58,2.46,6.76,2.46,9.55c0,0.6-0.13,1.89-0.38,3.88c-0.26,1.99-1.56,4.1-3.92,6.34c-2.36,2.24-5.18,3.51-8.46,3.8
					c-0.82,0.1-1.59,0.15-2.31,0.15c-1.54,0-3.18-0.17-4.92-0.52c-1.75-0.35-3.49-1.14-5.23-2.39c-1.74-1.24-3.26-3.01-4.54-5.3
					c-1.28-2.29-2.33-5.17-3.15-8.65c-0.31-1.59-0.75-3.21-1.31-4.85c-0.56-1.64-1.38-3.16-2.46-4.55
					c-1.08-1.39-2.56-2.54-4.46-3.43c-1.9-0.9-4.38-1.34-7.46-1.34c-4.61,0-8.43,1.27-11.46,3.8c-3.03,2.54-5.38,5.62-7.07,9.25
					c-1.69,3.63-2.85,7.36-3.46,11.19c-0.62,3.83-0.92,7.09-0.92,9.77c0,0.4,0,0.8,0,1.19c0.2,6.27,1.23,11.84,3.08,16.71
					c1.85,4.87,4.33,8.98,7.46,12.31c3.13,3.33,6.79,5.87,11,7.61c4.2,1.74,8.77,2.61,13.69,2.61c2.05,0,4.08-0.15,6.08-0.45
					c2-0.3,4.02-0.84,6.07-1.64c2.05-0.79,4.1-1.96,6.15-3.51C733.5,200.63,735.65,198.67,737.91,196.28z"/>
				<path style="fill:#6DBBB5;" d="M867.25,212.54c2.46,1.29,3.69,3.18,3.69,5.67v0.15c0,1.69-0.64,3.16-1.92,4.4
					c-1.28,1.25-2.84,1.87-4.69,1.87h-23.07c-2.67,0-5.13-0.65-7.38-1.94c-2.26-1.29-4.1-3.03-5.54-5.22
					c-0.31-0.5-1.15-1.96-2.54-4.4c-1.38-2.44-3-5.27-4.84-8.5c-1.85-3.23-3.79-6.56-5.84-10c-2.05-3.43-3.95-6.39-5.69-8.88
					c-1.03-1.59-2.44-3.01-4.23-4.25c-1.79-1.24-4.44-1.87-7.92-1.87h-2.62c-0.72,0-1.33,0.25-1.84,0.75
					c-0.51,0.5-0.77,1.1-0.77,1.79v23.12c0,2.59,1.23,4.53,3.69,5.82c0.51,0.2,0.95,0.37,1.31,0.52c0.36,0.15,0.69,0.32,1,0.52
					c0.31,0.2,0.62,0.35,0.92,0.45c2.46,1.29,3.69,3.18,3.69,5.67v0.15c0,1.69-0.64,3.16-1.92,4.4c-1.28,1.25-2.84,1.87-4.69,1.87
					h-37.22c-1.85,0-3.41-0.62-4.69-1.87c-1.28-1.24-1.92-2.71-1.92-4.4v-0.15c0-2.49,1.18-4.38,3.54-5.67l3.38-1.49
					c2.46-1.29,3.69-3.23,3.69-5.82v-64.15c0-1.19-0.33-2.31-1-3.36c-0.67-1.04-1.56-1.81-2.69-2.31c-0.41-0.2-0.82-0.4-1.23-0.6
					c-0.41-0.2-0.77-0.4-1.08-0.6c-0.41-0.2-0.77-0.35-1.08-0.45c-2.36-1.19-3.54-3.08-3.54-5.67c0-1.79,0.64-3.31,1.92-4.55
					c1.28-1.24,2.85-1.86,4.69-1.86h37.22c1.85,0,3.41,0.62,4.69,1.86c1.28,1.25,1.92,2.76,1.92,4.55c0,1.19-0.33,2.31-1,3.36
					c-0.67,1.04-1.56,1.82-2.69,2.31c-0.31,0.1-0.62,0.25-0.92,0.45c-0.31,0.2-0.64,0.4-1,0.6c-0.36,0.2-0.79,0.4-1.31,0.6
					c-1.13,0.5-2.03,1.27-2.69,2.31c-0.67,1.04-1,2.16-1,3.36v21.93c0,0.6,0.25,1,0.77,1.19c0.2,0.1,0.41,0.15,0.62,0.15
					c0.31,0,0.56-0.1,0.77-0.3c1.54-1.29,3.69-3.03,6.46-5.22c2.77-2.19,5.51-4.38,8.23-6.56c2.71-2.19,5.1-4.1,7.15-5.74
					c2.05-1.64,3.13-2.51,3.23-2.61c1.54-1.39,2.31-2.93,2.31-4.62c0-0.4-0.1-1.19-0.31-2.39c-0.21-1.19-1.23-2.24-3.08-3.13
					c-2.36-1.19-3.54-3.08-3.54-5.67c0-1.79,0.64-3.31,1.92-4.55c1.28-1.24,2.84-1.86,4.69-1.86h37.22c1.85,0,3.41,0.62,4.69,1.86
					c1.28,1.25,1.92,2.76,1.92,4.55c0,1.19-0.31,2.34-0.92,3.43c-0.62,1.1-1.54,1.84-2.77,2.24c-3.59,1.1-6.87,2.34-9.84,3.73
					c-2.98,1.39-5.49,2.74-7.54,4.03c-2.46,1.49-4.61,2.98-6.46,4.48c-0.1,0.1-0.77,0.65-2,1.64c-1.23,1-2.77,2.24-4.61,3.73
					s-3.95,3.16-6.31,5c-2.36,1.84-4.72,3.75-7.07,5.74c-0.31,0.3-0.46,0.65-0.46,1.04c0,0.1,0,0.2,0,0.3
					c0.1,0.4,0.51,0.7,1.23,0.89c4.92,0.7,9.36,2.56,13.3,5.59c3.95,3.04,7.1,6.29,9.46,9.77c0.51,0.7,1.51,2.34,3,4.92
					c1.48,2.59,3.08,5.35,4.77,8.28c1.69,2.93,3.25,5.62,4.69,8.06c1.43,2.44,2.25,3.86,2.46,4.25c1.13,1.69,2.46,2.94,4,3.73
					c1.54,0.8,2.87,1.49,4,2.09c0.51,0.2,0.95,0.37,1.31,0.52c0.36,0.15,0.69,0.32,1,0.52C866.64,212.3,866.94,212.45,867.25,212.54
					z"/>
				<path style="fill:#6DBBB5;" d="M932.15,161.22c4.92,1.49,9.71,3.18,14.38,5.07c4.67,1.89,8.82,4.1,12.46,6.64
					c3.64,2.54,6.56,5.52,8.77,8.95c2.2,3.43,3.31,7.49,3.31,12.16c0,5.77-1.36,10.69-4.08,14.77c-2.72,4.08-6.36,7.38-10.92,9.92
					c-4.56,2.54-9.79,4.38-15.69,5.52c-5.9,1.14-12.07,1.72-18.53,1.72c-11.18,0-20.97-1.66-29.37-5
					c-8.41-3.33-14.41-7.88-17.99-13.65c-1.33-2.29-2.08-4.18-2.23-5.67c-0.15-1.49-0.23-2.54-0.23-3.13c0-1.89,0.41-3.75,1.23-5.59
					c0.82-1.84,2.25-3.46,4.31-4.85c2.05-1.39,4.77-2.09,8.15-2.09c2.15,0,4.1,0.45,5.84,1.34c1.74,0.89,3.28,2.01,4.61,3.36
					c1.33,1.34,2.46,2.86,3.38,4.55c0.92,1.69,1.59,3.38,2,5.07c1.02,3.98,3.41,7.11,7.15,9.4c3.74,2.29,7.97,3.43,12.69,3.43
					c2.15,0,4.36-0.15,6.61-0.45c2.25-0.3,4.31-0.82,6.15-1.57s3.38-1.76,4.61-3.06c1.23-1.29,1.84-2.88,1.84-4.77
					c0-2.29-0.67-4.28-2-5.97c-1.33-1.69-3.1-3.18-5.31-4.48c-2.21-1.29-4.82-2.46-7.84-3.51c-3.03-1.04-6.23-2.01-9.61-2.91
					c-5.54-1.39-10.82-3.11-15.84-5.15c-5.02-2.04-9.43-4.42-13.23-7.16c-3.79-2.73-6.82-5.89-9.07-9.47
					c-2.26-3.58-3.38-7.61-3.38-12.08c0-5.57,1.28-10.37,3.84-14.4c2.56-4.03,5.97-7.36,10.23-10c4.25-2.63,9.12-4.6,14.61-5.89
					c5.48-1.29,11.2-1.94,17.15-1.94c3.9,0,7.77,0.3,11.61,0.89c3.84,0.6,7.46,1.37,10.84,2.31c3.38,0.95,6.46,2.01,9.23,3.21
					c2.77,1.19,5.02,2.44,6.77,3.73c4.31,3.18,7.15,6.24,8.54,9.18c1.38,2.93,2.08,5.5,2.08,7.68c0,0.7-0.18,1.92-0.54,3.66
					c-0.36,1.74-1.72,3.51-4.08,5.3c-2.36,1.79-5.28,2.69-8.77,2.69c-1.23,0-2.69-0.2-4.38-0.6c-1.69-0.4-3.36-1.14-5-2.24
					c-1.64-1.09-3.18-2.61-4.61-4.55c-1.44-1.94-2.51-4.45-3.23-7.53c-0.72-3.18-2.46-5.77-5.23-7.76
					c-2.77-1.99-7.08-2.98-12.92-2.98c-4.82,0-8.64,1.07-11.46,3.21c-2.82,2.14-4.23,4.65-4.23,7.53c0,2.69,0.67,4.87,2,6.56
					c1.33,1.69,3.2,3.13,5.61,4.33c2.41,1.19,5.28,2.24,8.61,3.13C924.33,158.98,928.05,160.03,932.15,161.22z"/>
				<path style="fill:#6DBBB5;" d="M1017.35,135.41c-1.13,0.5-2.03,1.27-2.69,2.31c-0.67,1.04-1,2.16-1,3.36v64.15
					c0,2.59,1.23,4.53,3.69,5.82c0.51,0.2,0.95,0.37,1.31,0.52c0.36,0.15,0.69,0.32,1,0.52c0.31,0.2,0.62,0.35,0.92,0.45
					c2.46,1.29,3.69,3.18,3.69,5.67v0.15c0,1.69-0.64,3.16-1.92,4.4c-1.28,1.25-2.84,1.87-4.69,1.87h-37.22
					c-1.85,0-3.41-0.62-4.69-1.87c-1.28-1.24-1.92-2.71-1.92-4.4v-0.15c0-2.49,1.18-4.38,3.54-5.67l3.38-1.49
					c2.46-1.29,3.69-3.23,3.69-5.82v-64.15c0-1.19-0.33-2.31-1-3.36c-0.67-1.04-1.56-1.81-2.69-2.31c-0.41-0.2-0.82-0.4-1.23-0.6
					c-0.41-0.2-0.77-0.4-1.08-0.6c-0.41-0.2-0.77-0.35-1.08-0.45c-2.36-1.19-3.54-3.08-3.54-5.67c0-1.79,0.64-3.31,1.92-4.55
					c1.28-1.24,2.85-1.86,4.69-1.86h37.22c1.85,0,3.41,0.62,4.69,1.86c1.28,1.25,1.92,2.76,1.92,4.55c0,1.19-0.33,2.31-1,3.36
					c-0.67,1.04-1.56,1.82-2.69,2.31c-0.31,0.1-0.62,0.25-0.92,0.45c-0.31,0.2-0.64,0.4-1,0.6
					C1018.29,135.01,1017.86,135.21,1017.35,135.41z"/>
				<path style="fill:#6DBBB5;" d="M1081.02,121.68c10.25,0,18.84,1.32,25.76,3.95c6.92,2.64,12.46,6.27,16.61,10.89
					s7.1,10.07,8.84,16.34c1.74,6.27,2.61,13.03,2.61,20.29c0,7.26-0.87,14.02-2.61,20.29c-1.74,6.27-4.69,11.71-8.84,16.34
					s-9.69,8.26-16.61,10.89c-6.92,2.64-15.51,3.95-25.76,3.95h-47.06c-1.85,0-3.41-0.62-4.69-1.87c-1.28-1.24-1.92-2.71-1.92-4.4
					v-0.15c0-2.49,1.18-4.38,3.54-5.67l3.38-1.49c2.46-1.29,3.69-3.23,3.69-5.82v-64.15c0-1.19-0.33-2.31-1-3.36
					c-0.67-1.04-1.56-1.81-2.69-2.31c-0.41-0.2-0.82-0.4-1.23-0.6c-0.41-0.2-0.77-0.4-1.08-0.6c-0.41-0.2-0.77-0.35-1.08-0.45
					c-2.36-1.19-3.54-3.08-3.54-5.67c0-1.79,0.64-3.31,1.92-4.55c1.28-1.24,2.85-1.86,4.69-1.86H1081.02z M1074.87,211.8
					c5.02,0,9.33-0.97,12.92-2.91c3.59-1.94,6.51-4.65,8.77-8.13c2.25-3.48,3.89-7.58,4.92-12.31c1.02-4.72,1.54-9.82,1.54-15.29
					c0-5.57-0.51-10.69-1.54-15.37c-1.03-4.67-2.67-8.75-4.92-12.23c-2.26-3.48-5.18-6.19-8.77-8.13c-3.59-1.94-7.9-2.91-12.92-2.91
					h-5.08c-0.72,0-1.33,0.25-1.84,0.75c-0.51,0.5-0.77,1.14-0.77,1.94v72.06c0,0.7,0.25,1.29,0.77,1.79
					c0.51,0.5,1.13,0.75,1.84,0.75H1074.87z"/>
				<path style="fill:#6DBBB5;" d="M1227.28,199.56c1.43,0.8,2.41,1.74,2.92,2.83c0.51,1.1,0.77,2.04,0.77,2.83
					c0,0.6-0.1,1.25-0.31,1.94c-0.82,2.59-1.56,4.97-2.23,7.16c-0.67,2.19-1.26,4.13-1.77,5.82c-0.51,1.39-1.36,2.49-2.54,3.28
					c-1.18,0.8-2.49,1.19-3.92,1.19h-76.43c-1.85,0-3.41-0.62-4.69-1.87c-1.28-1.24-1.92-2.71-1.92-4.4v-0.15
					c0-2.49,1.18-4.38,3.54-5.67l3.38-1.49c2.46-1.29,3.69-3.23,3.69-5.82v-64.15c0-1.19-0.33-2.31-1-3.36
					c-0.67-1.04-1.56-1.81-2.69-2.31c-0.41-0.2-0.82-0.4-1.23-0.6c-0.41-0.2-0.77-0.4-1.08-0.6c-0.41-0.2-0.77-0.35-1.08-0.45
					c-2.36-1.19-3.54-3.08-3.54-5.67c0-1.79,0.64-3.31,1.92-4.55c1.28-1.24,2.85-1.86,4.69-1.86h76.43c1.43,0,2.74,0.42,3.92,1.27
					c1.18,0.85,2.02,1.97,2.54,3.36c0.51,1.59,1.1,3.48,1.77,5.67c0.67,2.19,1.41,4.58,2.23,7.16c0.2,0.7,0.31,1.34,0.31,1.94
					c0,0.8-0.26,1.74-0.77,2.83c-0.51,1.1-1.49,2.04-2.92,2.83c-0.92,0.5-1.9,0.75-2.92,0.75c-0.51,0-1.28-0.12-2.31-0.37
					c-1.03-0.25-2.05-0.97-3.08-2.16c-1.13-1.49-2.18-2.86-3.15-4.1c-0.98-1.24-1.87-2.36-2.69-3.36c-1.74-1.99-3.84-2.98-6.31-2.98
					h-23.22c-1.85,0-3.41,0.65-4.69,1.94c-1.28,1.29-1.92,2.79-1.92,4.48v22.53c0,0.6,0.25,1.24,0.77,1.94
					c0.51,0.5,1.13,0.75,1.84,0.75h23.22c1.23,0,2.38-0.32,3.46-0.97c1.08-0.65,1.87-1.52,2.38-2.61c1.13-2.09,2.25-3.53,3.38-4.33
					c1.13-0.79,2.25-1.19,3.38-1.19c1.23,0,2.2,0.47,2.92,1.42c0.72,0.95,1.08,2.01,1.08,3.21v21.78c0,1.19-0.36,2.24-1.08,3.13
					c-0.72,0.89-1.69,1.34-2.92,1.34c-1.13,0-2.26-0.37-3.38-1.12c-1.13-0.75-2.26-2.16-3.38-4.25c-0.51-1.09-1.31-1.96-2.38-2.61
					c-1.08-0.65-2.23-0.97-3.46-0.97h-23.22c-0.72,0-1.33,0.25-1.84,0.75c-0.51,0.5-0.77,1.1-0.77,1.79v23.87
					c0,1.79,0.64,3.31,1.92,4.55c1.28,1.25,2.84,1.87,4.69,1.87h23.22c2.67,0,4.77-0.99,6.31-2.98c0.82-0.99,1.72-2.11,2.69-3.36
					c0.97-1.24,2.02-2.61,3.15-4.1c1.02-1.19,2.05-1.91,3.08-2.16c1.02-0.25,1.79-0.37,2.31-0.37
					C1225.38,198.82,1226.35,199.07,1227.28,199.56z"/>
			</g>
		</g>
	</g>
</g>
<g>
</g>
<g>
</g>
<g>
</g>
<g>
</g>
<g>
</g>
<g>
</g>
<g>
</g>
<g>
</g>
<g>
</g>
<g>
</g>
<g>
</g>
<g>
</g>
<g>
</g>
<g>
</g>
<g>
</g>
</svg>
