<?xml version="1.0" encoding="utf-8"?>
<!-- Generator: Adobe Illustrator 25.0.0, SVG Export Plug-In . SVG Version: 6.00 Build 0)  -->
<svg version="1.1" id="Layer_1" xmlns="http://www.w3.org/2000/svg" xmlns:xlink="http://www.w3.org/1999/xlink" x="0px" y="0px"
	 viewBox="0 0 808.48 697.38" style="enable-background:new 0 0 808.48 697.38;" xml:space="preserve">
<g>
	<g>
		<path style="opacity:0.36;fill:#6DBBB5;" d="M488.71,300.55c-40.36,0-40.36-20.38-80.74-20.38c-40.35,0-40.35,20.38-80.72,20.38
			c-37,0-40.11-17.11-71.45-19.97c0.9,1.41,1.58,2.94,1.97,4.57c2.03,8.46,4.39,16.84,7.61,24.93c0.04,0.11,0.07,0.19,0.11,0.27
			c0.06,0.12,0.12,0.26,0.2,0.44c0.37,0.8,0.73,1.61,1.12,2.41c0.9,1.87,1.85,3.71,2.85,5.52c2.04,3.68,4.29,7.26,6.81,10.62
			c0.09,0.11,0.15,0.2,0.22,0.29c0.11,0.13,0.29,0.33,0.56,0.66c0.62,0.74,1.24,1.49,1.87,2.22c1.26,1.45,2.55,2.86,3.87,4.25
			c2.62,2.76,5.36,5.41,8.12,8.03c3.01,2.85,6.08,5.66,9.1,8.51c1.38,1.3,2.74,2.63,4.17,3.87c0.5,0.43,1,0.87,1.52,1.29
			c0.11,0.07,0.34,0.23,0.75,0.51c6.6,4.55,13.69,8.26,20.64,12.24c6.84,3.92,13.19,8.47,20.41,11.69c0.42,0.18,1.32,0.56,1.48,0.63
			c0.89,0.36,1.79,0.7,2.69,1.05c1.8,0.68,3.61,1.34,5.42,1.98c3.73,1.31,7.48,2.56,11.24,3.76c7.16,2.28,16.75,4.62,22.35,5.15
			c8.58,0.81,17.16,0.29,25.76,0.41c4.41,0.06,8.8,0.42,13.21,0.67c0.06-0.05,0.11-0.11,0.16-0.16c0.29-0.28,0.59-0.55,0.91-0.8
			c0.3-0.26,0.63-0.52,0.95-0.76c0.68-0.51,1.41-0.97,2.15-1.38c0.3-0.16,0.61-0.32,0.91-0.48c0.03-0.01,0.08-0.03,0.13-0.06
			c0.34-0.16,0.68-0.31,1.03-0.45c0.37-0.15,0.75-0.29,1.14-0.42c10.81-3.63,21.74-6.89,32.53-10.61c1.07-0.37,2.13-0.76,3.19-1.12
			c0.1-0.05,0.25-0.14,0.49-0.26c0.04,0.04,0.25-0.06,0.51-0.23c0.4-0.39,1.21-1.11,1.37-1.25c4.08-3.62,8.12-5.9,12.96-8.19
			c5.22-2.47,4.92-2.97,9.22-7.31c0.36-0.36,0.7-0.71,1.06-1.06c2.95-2.94,6.01-5.83,9.2-8.5c2.48-2.07,5.04-4.11,7.74-5.89
			c0.91-0.61,1.86-1.19,2.82-1.72c0.48-0.26,0.78-0.44,0.95-0.54c0.9-0.85,1.73-1.78,2.51-2.76c0-0.01,0.01-0.03,0.01-0.04
			c-0.7,0.75-0.95,0.64,0.08-0.28c0.1-0.35,0.19-0.68,0.31-1.02c0.01-0.03,0.02-0.08,0.03-0.11c0.11-0.34,0.23-0.65,0.36-0.97
			c0-0.01,0.01-0.02,0.01-0.02c0.11-0.28,0.24-0.56,0.36-0.84c0.18-0.39,0.37-0.77,0.57-1.14c0.17-0.31,0.35-0.63,0.54-0.93
			c0.14-0.22,0.28-0.43,0.43-0.65c0.08-0.13,0.17-0.26,0.28-0.39c0.13-0.19,0.28-0.4,0.43-0.58c0.26-0.34,0.53-0.65,0.81-0.96
			c0.27-0.29,0.55-0.58,0.84-0.85c0.05-0.05,0.11-0.11,0.16-0.15c0.25-0.24,0.52-0.47,0.79-0.68c1.54-1.25,3.31-2.25,5.29-2.93
			c6.2-16.48,12.79-32.93,20.73-48.64C528.2,285.81,523.05,300.55,488.71,300.55z"/>
		<path style="opacity:0.36;fill:#6DBBB5;" d="M456.12,312.84c-40.35,0-40.35,20.39-80.72,20.39c-40.36,0-40.36-20.39-80.74-20.39
			c-11.25,0-19.36,1.59-26.08,3.87c0.36,0.68,0.71,1.35,1.08,2.02c2.04,3.68,4.29,7.26,6.81,10.62c0.09,0.11,0.15,0.2,0.22,0.29
			c0.11,0.13,0.29,0.33,0.56,0.66c0.62,0.74,1.24,1.49,1.87,2.22c1.26,1.45,2.55,2.86,3.87,4.25c2.62,2.76,5.36,5.41,8.12,8.03
			c3.01,2.85,6.08,5.66,9.1,8.51c1.38,1.3,2.74,2.63,4.17,3.87c0.5,0.43,1,0.87,1.52,1.29c0.11,0.07,0.34,0.23,0.75,0.51
			c6.6,4.55,13.69,8.26,20.64,12.24c6.84,3.92,13.19,8.47,20.41,11.69c0.42,0.18,1.32,0.56,1.48,0.63c0.89,0.36,1.79,0.7,2.69,1.05
			c1.8,0.68,3.61,1.34,5.42,1.98c3.73,1.31,7.48,2.56,11.24,3.76c7.16,2.28,16.75,4.62,22.35,5.15c8.58,0.81,17.16,0.29,25.76,0.41
			c4.41,0.06,8.8,0.42,13.21,0.67c0.06-0.05,0.11-0.11,0.16-0.16c0.29-0.28,0.59-0.55,0.91-0.8c0.31-0.27,0.63-0.52,0.95-0.76
			c0.68-0.51,1.41-0.97,2.15-1.38c0.29-0.16,0.59-0.32,0.91-0.48c0.03-0.01,0.08-0.03,0.13-0.06c0.34-0.16,0.68-0.31,1.03-0.45
			c0.38-0.15,0.76-0.29,1.14-0.42c10.81-3.63,21.74-6.89,32.53-10.61c1.07-0.37,2.13-0.76,3.19-1.12c0.1-0.05,0.25-0.14,0.49-0.26
			c0.04,0.04,0.25-0.06,0.51-0.23c0.4-0.39,1.21-1.11,1.37-1.25c4.08-3.62,8.12-5.9,12.96-8.19c5.22-2.47,4.92-2.97,9.22-7.31
			c0.36-0.36,0.7-0.71,1.06-1.06c2.95-2.94,6.01-5.83,9.2-8.5c2.48-2.07,5.04-4.11,7.74-5.89c0.91-0.61,1.86-1.19,2.82-1.72
			c0.48-0.26,0.78-0.44,0.95-0.54c0.9-0.85,1.73-1.78,2.51-2.76c0-0.01,0.01-0.03,0.01-0.04c-0.7,0.75-0.95,0.64,0.08-0.28
			c0.1-0.35,0.19-0.68,0.31-1.02c0.01-0.03,0.02-0.08,0.03-0.11c0.11-0.34,0.23-0.66,0.36-0.97c0-0.01,0.01-0.02,0.01-0.02
			c0.12-0.29,0.24-0.57,0.36-0.84c0.18-0.39,0.37-0.77,0.57-1.14c0.17-0.31,0.35-0.63,0.54-0.93c0.14-0.22,0.28-0.43,0.43-0.65
			c0.08-0.13,0.17-0.26,0.28-0.39c0.13-0.19,0.27-0.4,0.43-0.58c0.26-0.34,0.53-0.65,0.81-0.96c0.27-0.29,0.55-0.58,0.84-0.85
			c0.05-0.05,0.11-0.11,0.16-0.15c0.26-0.24,0.52-0.48,0.79-0.68c0.05-0.05,0.11-0.1,0.16-0.14
			C496.28,330.07,493.28,312.84,456.12,312.84z"/>
		<path style="fill:#6DBBB5;" d="M488.71,362.46c-40.36,0-40.36-20.38-80.74-20.38c-40.35,0-40.35,20.38-80.72,20.38
			c-7.02,0-12.82-0.62-17.83-1.64c5.79,3.74,11.87,6.96,17.86,10.39c6.84,3.92,13.19,8.47,20.41,11.69
			c0.42,0.18,1.32,0.56,1.48,0.63c0.89,0.36,1.79,0.7,2.69,1.05c1.8,0.68,3.61,1.34,5.42,1.98c3.73,1.31,7.48,2.56,11.24,3.76
			c7.16,2.28,16.75,4.62,22.35,5.15c8.58,0.81,17.16,0.29,25.76,0.41c4.41,0.06,8.8,0.42,13.21,0.67c0.06-0.05,0.11-0.11,0.16-0.16
			c0.29-0.28,0.59-0.55,0.91-0.8c0.3-0.26,0.63-0.52,0.95-0.76c0.68-0.51,1.41-0.97,2.15-1.38c0.3-0.16,0.61-0.32,0.91-0.48
			c0.03-0.01,0.08-0.03,0.13-0.06c0.34-0.16,0.68-0.31,1.03-0.45c0.37-0.15,0.75-0.29,1.14-0.42c10.81-3.63,21.74-6.89,32.53-10.61
			c1.07-0.37,2.13-0.76,3.19-1.12c0.1-0.05,0.25-0.14,0.49-0.26c0.04,0.04,0.25-0.06,0.51-0.23c0.4-0.39,1.21-1.11,1.37-1.25
			c4.08-3.62,8.12-5.9,12.96-8.19c5.22-2.47,4.92-2.97,9.22-7.31c0.36-0.36,0.7-0.71,1.06-1.06
			C495.56,362.3,492.29,362.46,488.71,362.46z"/>
		<path style="fill:#1A304D;" d="M605.8,341.08c-19.01-10.96-26.91-2.17-37.11-20.32c12.36-24.69,19.33-52.52,19.33-81.95
			c0-28.5-6.52-55.5-18.14-79.6c10.22-18.36,18.12-9.48,37.18-20.49c18.92-10.92,12.66-21.92,12.25-22.6
			c-0.01-0.03-0.02-0.04-0.02-0.04c-0.39-0.7-6.78-11.61-25.7-0.69c-19.02,10.98-15.33,22.23-36.19,21.98
			c-12.14-18.28-27.47-34.27-45.18-47.18c0,0,0,0,0,0c0.01-0.01,0.01-0.01,0.02-0.02c-18.83-14.16-40.29-24.67-63.16-30.81
			c-0.04-0.19-0.09-0.37-0.14-0.56c-0.27-1.01-0.57-2.01-0.9-2.99c-0.78-2.29-1.74-4.46-2.85-6.54c-1.81-3.39-4.04-6.51-6.56-9.34
			c-0.41-0.47-0.83-0.93-1.28-1.38c-2.04-2.15-4.26-4.13-6.62-5.95c-4-3.08-8.37-5.7-12.94-7.89c-0.5-0.24-0.99-0.47-1.5-0.7
			c-0.48-0.22-0.98-0.44-1.46-0.65c-2.7-1.17-5.44-2.19-8.21-3.07c-2.85-0.91-5.72-1.67-8.56-2.29c-1.18-0.25-2.34-0.48-3.51-0.69
			c0.61-0.61,1.29-1.17,2.01-1.66c0.68-0.46,1.4-0.86,2.15-1.2c0.47-0.2,0.95-0.37,1.44-0.53c1.29-0.4,2.65-0.61,4.09-0.61
			c1.92,0,3.71,0.38,5.35,1.07c0.83,0.35,1.62,0.79,2.36,1.3c0.92,0.61,1.76,1.35,2.51,2.17c3.29,1.32,6.54,2.83,9.68,4.56
			c2.23,1.23,4.42,2.58,6.53,4.04c0.21,0.13,0.41,0.28,0.62,0.43v-0.32c-0.06-3.53-0.81-6.94-2.12-10.04
			c-2.06-4.86-5.48-8.98-9.8-11.89c-1.49-1.02-3.1-1.89-4.81-2.58c-0.74-0.32-1.5-0.59-2.27-0.83C409.74,0.43,407.03,0,404.24,0
			c-2.94,0-5.79,0.47-8.46,1.35c-0.7,0.24-1.4,0.5-2.08,0.78c-4.86,2.06-8.98,5.48-11.9,9.8c-1.45,2.15-2.61,4.54-3.4,7.08
			c-0.75,2.4-1.17,4.94-1.21,7.56c-0.01,0.16-0.01,0.33-0.01,0.49c0,3.72,0.76,7.29,2.13,10.54c2.06,4.85,5.48,8.98,9.8,11.89
			c0.82,0.56,1.68,1.07,2.58,1.54c0.73,0.38,1.47,0.73,2.23,1.04v2.63c0,0,0,0,0,0c-7.5,0.98-19.21,2.68-23.01,3.38
			c-48.97,9-91.2,37.49-118.35,77.08c-21.09,0.35-17.32-10.94-36.41-21.96c-18.92-10.93-25.31,0-25.7,0.7
			c-0.02,0.02-0.03,0.03-0.03,0.03c-0.4,0.69-6.66,11.67,12.26,22.6c19.01,10.97,26.92,2.18,37.11,20.32
			c-12.36,24.69-19.33,52.52-19.33,81.96c0,28.5,6.53,55.5,18.15,79.59c-10.23,18.37-18.13,9.48-37.19,20.49
			c-18.92,10.92-12.66,21.92-12.26,22.61c0.02,0.03,0.03,0.04,0.03,0.04c0.39,0.69,6.77,11.61,25.7,0.69
			c19.02-10.99,15.33-22.24,36.19-21.98c30.54,45.96,81.19,77.46,139.29,81.81c10.77,18.03-0.87,20.43-0.87,42.44
			c0,21.85,12.66,21.93,13.46,21.92c0.02,0,0.04,0,0.04,0c0.8,0.01,13.45-0.07,13.45-21.92c0-21.94-11.57-24.39-0.97-42.27
			c58.27-3.53,109.29-34.33,140.44-79.78c21.1-0.34,17.32,10.95,36.41,21.97c18.92,10.92,25.31,0,25.7-0.7
			c0.02-0.02,0.02-0.03,0.02-0.03C618.46,363,624.72,352.01,605.8,341.08z M238.02,291.23c-5.23-16.55-8.06-34.16-8.06-52.42
			c0-17.38,2.56-34.16,7.32-50.02l11.96,6.91c-3.82,13.72-5.87,28.18-5.87,43.11c0,15.81,2.3,31.09,6.58,45.54L238.02,291.23z
			 M532.67,121.12l-11.91,6.87c-6.75-7.1-14.15-13.57-22.09-19.35c0,0,0,0,0,0c-13.28-9.66-28.08-17.33-43.98-22.59
			c-1.39-0.46-4.44-1.63-6.53-2.35c0.09-0.25,0.16-0.49,0.23-0.74c1.15-3.76,1.85-7.66,1.98-11.65c0.01-0.33,0.02-0.66,0.02-0.99
			c1.23,0.35,2.57,0.74,2.94,0.85c14.77,4.41,28.56,11.48,41.66,19.37c3.88,2.33,7.67,4.81,11.34,7.42
			C515.96,104.8,524.82,112.57,532.67,121.12z M398.59,231.49c0.4,0.34,0.75,0.72,1.11,1.07c0.37,0.37,0.74,0.71,1.09,1.09
			c1.11,1.18,2.16,2.42,3.15,3.71c0.86-1.02,1.76-2,2.71-2.95c1.25-1.25,2.6-2.42,3.98-3.51c1.39-1.1,2.85-2.1,4.33-3.04
			c1.5-0.92,3.03-1.78,4.6-2.54c-1.41,1.03-2.81,2.07-4.15,3.17c-1.36,1.08-2.66,2.23-3.92,3.4c-1.26,1.18-2.44,2.43-3.57,3.72
			c-1.14,1.28-2.2,2.62-3.2,4l-0.77,1.05l-0.86-1.05c-1.24-1.52-2.53-3-3.92-4.38c-1.39-1.38-2.84-2.71-4.38-3.93
			c-3.05-2.47-6.37-4.63-9.82-6.57c-3.44-1.95-7.04-3.66-10.69-5.27c-3.65-1.61-7.39-3.04-11.14-4.53c0.98,0.22,1.96,0.43,2.94,0.66
			l1.48,0.35c0.49,0.12,0.97,0.26,1.46,0.4c0.96,0.27,1.94,0.52,2.91,0.82l2.88,0.94c3.83,1.3,7.58,2.85,11.2,4.72
			c3.61,1.87,7.08,4.07,10.26,6.66C397.07,230.11,397.83,230.81,398.59,231.49z M414.56,85.93c1.71,0.21,3.15,0.39,4.03,0.49
			c6.02,0.68,11.97,1.73,17.82,3.13c-1.54,2.78-3.36,5.45-5.35,7.95c-1.91,2.41-4.03,4.7-6.29,6.93c-2.25,2.22-4.63,4.38-7.09,6.51
			c-1.04,0.89-2.07,1.77-3.12,2.65V85.93z M392.83,34.74c-0.74-1.09-1.32-2.3-1.72-3.59c-0.4-1.29-0.62-2.66-0.62-4.09
			c0-0.61,0.04-1.21,0.12-1.79c4.4,0.64,8.95,1.68,13.43,3.1c1.08,0.35,2.17,0.72,3.25,1.11c3.12,1.14,6.18,2.48,9.1,4.02
			c1.25,0.65,2.48,1.33,3.68,2.06c2.64,1.61,5.14,3.39,7.43,5.33c2.87,2.44,5.42,5.13,7.53,8.08c1.44,2,2.67,4.11,3.7,6.35
			c0.26,0.56,0.5,1.14,0.72,1.73c-8.16-1.73-16.47-2.91-24.89-3.5v-1.48c0.07-0.03,0.15-0.05,0.22-0.09
			c0.69-0.29,1.36-0.6,2.02-0.95c2.96-1.56,5.59-3.64,7.77-6.13c-0.25-0.21-0.49-0.43-0.75-0.64c-2.51-2.08-5.33-3.97-8.36-5.65
			c-0.72-0.41-1.46-0.79-2.21-1.17c-0.42,0.36-0.86,0.71-1.33,1.03c-1.09,0.74-2.3,1.33-3.59,1.72c-1.29,0.4-2.65,0.62-4.09,0.62
			c-1.91,0-3.71-0.38-5.35-1.08C396.43,38.7,394.32,36.94,392.83,34.74z M365.93,68.78v13.78c-29.92,7.34-56.56,23.06-77.31,44.52
			l-11.93-6.89C300.2,94.92,331.1,76.62,365.93,68.78z M365.93,408.84c-33.98-7.65-64.23-25.25-87.52-49.58l11.98-6.91
			c20.48,20.54,46.47,35.58,75.54,42.71V408.84z M445.04,408.26v-13.83c28.49-7.47,53.91-22.59,73.95-43l11.96,6.91
			C508.11,382.54,478.43,400.22,445.04,408.26z M549.24,282.34c-5.52,18.35-14.43,35.24-26.01,49.94
			c-9.05,11.51-19.74,21.67-31.71,30.14h-0.02c0,0-0.01,0-0.01,0.01c-24.18,17.11-53.54,27.33-85.25,27.74
			c-33.85,0.44-65.14-10.1-90.51-28.34h-0.01c0,0-0.01,0-0.01-0.01c-17.17-12.35-31.61-28.19-42.31-46.55
			c-6.23-10.68-11.19-22.2-14.66-34.37c-3.74-13.05-5.78-26.85-5.87-41.14c-0.48-77.12,57.01-141.15,131.36-151.01
			c0.36-0.04,5.72-0.48,9.69-0.81c0,0,0,0,0,0v78.16c0,23.45-19.01,42.46-42.46,42.46h-6.99c0,0-16.84-0.3-21.86-9.64
			c-0.93-1.73-0.6-4.45,2.42-6.88c0,0-19.21-2.97-28.5-18.52c0,0,6.16,35.52,52.8,45.89c41.6,9.24,48.7,22.87,54.91,34.69
			c6.21-11.82,13.31-25.45,54.91-34.69c46.64-10.37,52.8-45.89,52.8-45.89c-9.29,15.55-28.51,18.52-28.51,18.52
			c3.03,2.43,3.36,5.15,2.43,6.88c-5.02,9.34-21.86,9.64-21.86,9.64h-6.99c-23.45,0-42.46-19.01-42.46-42.46v-41.44
			c2.85-2.39,5.77-4.81,8.66-7.32c5.1-4.4,10.12-9.1,14.47-14.55c1.83-2.3,3.53-4.73,5.07-7.29c0.68-1.14,1.33-2.3,1.94-3.49
			c4.75,1.79,12.09,4.8,14.61,5.79c56.33,22.07,96.31,76.96,96.31,141.01C555.62,253.94,553.39,268.55,549.24,282.34z
			 M559.58,196.94l11.98-6.92c4.52,15.48,6.97,31.85,6.97,48.79c0,17.81-2.7,35.01-7.68,51.21l-11.95-6.9
			c4.05-14.08,6.22-28.94,6.22-44.31C565.12,224.32,563.18,210.3,559.58,196.94z"/>
	</g>
</g>
<g>
	<g>
		<path style="fill:#1A304D;" d="M205.25,696.7h-4.47l-4.2-11.15l-3.48-10.61l-3.47,10.65l-4.15,11.1h-4.42l-11.46-31.64h5.64
			l8.03,24.33l8.17-24.33h3.25l8.35,24.33l7.85-24.33h5.64L205.25,696.7z"/>
		<path style="fill:#1A304D;" d="M251.6,696.66h-23.33c0-10.52,0-21.08,0-31.59h23.2v4.92h-18.14v8.53h17.42v4.69h-17.42v8.49h18.28
			V696.66z"/>
		<path style="fill:#1A304D;" d="M279.54,665.06c6,0,10.74,2.75,10.74,9.03c0,2.66-1.4,5.06-4.38,6.27
			c3.79,1.13,5.37,4.87,5.37,7.27c0,6.91-5.51,9.03-11.74,9.03c-4.92,0-9.57,0-14.49,0v-31.59H279.54z M270.06,678.15h9.52
			c3.79,0,5.69-1.49,5.69-3.97c0-2.21-1.94-4.56-5.73-4.56h-9.48V678.15z M270.06,691.96h9.48c2.8,0,6.68-0.9,6.68-4.38
			c0-3.39-3.75-4.92-6.63-4.92c-3.21,0-6.32,0-9.52,0V691.96z"/>
		<path style="fill:#1A304D;" d="M340.74,672.06c-1.49-2.17-4.51-3.48-7.81-3.52c-4.24,0-7.31,1.76-7.31,4.78
			c0,3.07,3.52,3.93,7.67,4.51c6.5,0.9,12.68,2.71,12.68,9.79c-0.04,7.09-6.5,9.75-13.09,9.75c-6.05,0-10.7-1.85-13.59-7.18
			l3.79-2.53c2.26,3.84,6.18,5.19,9.84,5.19c3.79,0,7.99-1.26,7.99-5.24c0-3.43-3.66-4.6-8.08-5.19
			c-6.27-0.86-12.23-2.44-12.23-9.21c-0.04-6.54,6.5-9.07,12.19-9.07c4.56,0,9.12,1.08,11.78,5.33L340.74,672.06z"/>
		<path style="fill:#1A304D;" d="M388.99,680.99c0,8.53-5.19,16.34-16.16,16.34s-16.16-7.99-16.16-16.29
			c0-9.61,6.72-16.56,16.25-16.56C383.71,664.52,388.99,672.46,388.99,680.99z M372.83,692.68c7.85,0,11.15-5.55,11.15-11.6
			c0-5.82-3.34-11.87-11.06-12.01c-7.31,0-11.24,5.1-11.24,12.01C361.77,686.68,365.02,692.68,372.83,692.68z"/>
		<path style="fill:#1A304D;" d="M406.99,665.06v26.9h16.65v4.69h-21.71v-31.59H406.99z"/>
		<path style="fill:#1A304D;" d="M461.02,665.11v18.46c0,9.3-6.14,13.95-13.77,13.68c-7.04-0.18-13.04-4.69-13.04-13.68v-18.46h5.01
			v18.46c0,5.73,3.34,8.85,8.03,9.03c5.05,0.27,8.76-3.02,8.76-9.03v-18.46H461.02z"/>
		<path style="fill:#1A304D;" d="M482.68,669.62H472.3v-4.56c9.07,0,16.75,0,25.82,0v4.56h-10.34v27.04h-5.1V669.62z"/>
		<path style="fill:#1A304D;" d="M509.81,696.66v-31.59h5.01v31.59H509.81z"/>
		<path style="fill:#1A304D;" d="M560.09,680.99c0,8.53-5.19,16.34-16.16,16.34s-16.16-7.99-16.16-16.29
			c0-9.61,6.72-16.56,16.25-16.56C554.81,664.52,560.09,672.46,560.09,680.99z M543.93,692.68c7.85,0,11.15-5.55,11.15-11.6
			c0-5.82-3.34-11.87-11.06-12.01c-7.31,0-11.24,5.1-11.24,12.01C532.87,686.68,536.12,692.68,543.93,692.68z"/>
		<path style="fill:#1A304D;" d="M594.84,687.54v-22.48h5.05v31.59h-3.84l-17.92-22.3v22.3h-5.1v-31.59h3.88L594.84,687.54z"/>
		<path style="fill:#1A304D;" d="M633.65,672.06c-1.49-2.17-4.51-3.48-7.81-3.52c-4.24,0-7.31,1.76-7.31,4.78
			c0,3.07,3.52,3.93,7.67,4.51c6.5,0.9,12.68,2.71,12.68,9.79c-0.04,7.09-6.5,9.75-13.09,9.75c-6.05,0-10.7-1.85-13.59-7.18
			l3.79-2.53c2.26,3.84,6.18,5.19,9.84,5.19c3.79,0,7.99-1.26,7.99-5.24c0-3.43-3.66-4.6-8.08-5.19
			c-6.27-0.86-12.23-2.44-12.23-9.21c-0.04-6.54,6.5-9.07,12.19-9.07c4.56,0,9.12,1.08,11.78,5.33L633.65,672.06z"/>
	</g>
</g>
<g>
	<g>
		<path style="fill:#6DBBB5;" d="M53.67,527.07c10.25,0,18.84,1.32,25.76,3.95c6.92,2.64,12.46,6.27,16.61,10.89
			s7.1,10.07,8.84,16.34c1.74,6.27,2.61,13.03,2.61,20.29c0,7.26-0.87,14.02-2.61,20.29c-1.74,6.27-4.69,11.71-8.84,16.34
			s-9.69,8.26-16.61,10.89c-6.92,2.64-15.51,3.95-25.76,3.95H6.61c-1.85,0-3.41-0.62-4.69-1.87C0.64,626.9,0,625.44,0,623.75v-0.15
			c0-2.49,1.18-4.38,3.54-5.67l3.38-1.49c2.46-1.29,3.69-3.23,3.69-5.82v-64.15c0-1.19-0.33-2.31-1-3.36
			c-0.67-1.04-1.56-1.81-2.69-2.31c-0.41-0.2-0.82-0.4-1.23-0.6c-0.41-0.2-0.77-0.4-1.08-0.6c-0.41-0.2-0.77-0.35-1.08-0.45
			C1.18,537.96,0,536.07,0,533.48c0-1.79,0.64-3.31,1.92-4.55c1.28-1.24,2.85-1.86,4.69-1.86H53.67z M47.52,617.18
			c5.02,0,9.33-0.97,12.92-2.91c3.59-1.94,6.51-4.65,8.77-8.13c2.25-3.48,3.89-7.58,4.92-12.31c1.02-4.72,1.54-9.82,1.54-15.29
			c0-5.57-0.51-10.69-1.54-15.37c-1.03-4.67-2.67-8.75-4.92-12.23c-2.26-3.48-5.18-6.19-8.77-8.13c-3.59-1.94-7.9-2.91-12.92-2.91
			h-5.08c-0.72,0-1.33,0.25-1.84,0.75c-0.51,0.5-0.77,1.14-0.77,1.94v72.06c0,0.7,0.25,1.29,0.77,1.79c0.51,0.5,1.13,0.75,1.84,0.75
			H47.52z"/>
		<path style="fill:#6DBBB5;" d="M167.33,525.73c9.94,0,18.48,1.39,25.61,4.18c7.12,2.79,12.97,6.57,17.53,11.34
			c4.56,4.77,7.84,10.22,9.84,16.34c2,6.12,3,12.46,3,19.02c0,0.7,0,1.34,0,1.94c-0.1,7.26-1.33,14.1-3.69,20.51
			c-2.36,6.42-5.92,12.01-10.69,16.79c-4.77,4.77-10.76,8.55-17.99,11.34c-7.23,2.79-15.82,4.18-25.76,4.18
			c-9.95,0-18.48-1.39-25.61-4.18c-7.13-2.78-12.97-6.56-17.53-11.34c-4.56-4.77-7.84-10.29-9.84-16.56c-2-6.27-3-12.83-3-19.69
			c0-0.4,0-0.75,0-1.04c0.2-7.26,1.46-14.1,3.77-20.51c2.31-6.42,5.84-12.01,10.61-16.78c4.77-4.77,10.76-8.55,17.99-11.34
			C148.79,527.12,157.38,525.73,167.33,525.73z M168.09,618.52c4.51,0,8.33-1.04,11.46-3.13c3.13-2.09,5.64-4.95,7.54-8.58
			c1.9-3.63,3.13-7.51,3.69-11.64c0.56-4.13,0.85-7.98,0.85-11.56c0-1.69-0.05-3.38-0.15-5.07c-0.31-5.57-1.13-10.77-2.46-15.59
			c-1.33-4.82-3.15-9.03-5.46-12.61c-2.31-3.58-5.18-6.42-8.61-8.5c-3.44-2.09-7.41-3.13-11.92-3.13c-4.51,0-8.33,1.04-11.46,3.13
			c-3.13,2.09-5.61,4.92-7.46,8.5c-1.85,3.58-3.05,7.34-3.61,11.26c-0.56,3.93-0.85,7.59-0.85,10.97c0,1.99,0.05,3.98,0.15,5.97
			c0.31,5.47,1.13,10.64,2.46,15.52c1.33,4.88,3.15,9.13,5.46,12.76c2.31,3.63,5.15,6.49,8.54,8.58S163.58,618.52,168.09,618.52z"/>
		<path style="fill:#6DBBB5;" d="M315.43,601.67c0.92-0.9,1.92-1.52,3-1.87c1.08-0.35,2.02-0.52,2.85-0.52c0.41,0,1,0.07,1.77,0.22
			c0.77,0.15,1.54,0.62,2.31,1.42c0.77,0.8,1.15,1.94,1.15,3.43c0,1.99-0.92,4.5-2.77,7.53c-1.84,3.04-4.64,5.99-8.38,8.88
			c-3.74,2.89-8.46,5.37-14.15,7.46s-12.43,3.13-20.22,3.13c-8.82,0-16.69-1.24-23.61-3.73c-6.92-2.49-12.79-5.97-17.61-10.44
			c-4.82-4.48-8.49-9.87-11-16.19c-2.51-6.31-3.77-13.35-3.77-21.11c0-8.35,1.38-15.89,4.15-22.6c2.77-6.71,6.59-12.41,11.46-17.08
			c4.87-4.67,10.69-8.25,17.46-10.74c6.77-2.49,14.15-3.73,22.15-3.73c8.3,0,15.33,0.97,21.07,2.91c5.74,1.94,10.05,4,12.92,6.19
			c5.23,3.88,8.66,7.61,10.3,11.19c1.64,3.58,2.46,6.76,2.46,9.55c0,0.6-0.13,1.89-0.38,3.88c-0.26,1.99-1.56,4.1-3.92,6.34
			c-2.36,2.24-5.18,3.51-8.46,3.8c-0.82,0.1-1.59,0.15-2.31,0.15c-1.54,0-3.18-0.17-4.92-0.52c-1.75-0.35-3.49-1.14-5.23-2.39
			c-1.74-1.24-3.26-3.01-4.54-5.3c-1.28-2.29-2.33-5.17-3.15-8.65c-0.31-1.59-0.75-3.21-1.31-4.85c-0.56-1.64-1.38-3.16-2.46-4.55
			c-1.08-1.39-2.56-2.54-4.46-3.43c-1.9-0.9-4.38-1.34-7.46-1.34c-4.61,0-8.43,1.27-11.46,3.8c-3.03,2.54-5.38,5.62-7.07,9.25
			c-1.69,3.63-2.85,7.36-3.46,11.19c-0.62,3.83-0.92,7.09-0.92,9.77c0,0.4,0,0.8,0,1.19c0.2,6.27,1.23,11.84,3.08,16.71
			c1.85,4.87,4.33,8.98,7.46,12.31c3.13,3.33,6.79,5.87,11,7.61c4.2,1.74,8.77,2.61,13.69,2.61c2.05,0,4.08-0.15,6.08-0.45
			c2-0.3,4.02-0.84,6.07-1.64c2.05-0.79,4.1-1.96,6.15-3.51C311.02,606.02,313.17,604.05,315.43,601.67z"/>
		<path style="fill:#6DBBB5;" d="M444.77,617.93c2.46,1.29,3.69,3.18,3.69,5.67v0.15c0,1.69-0.64,3.16-1.92,4.4
			c-1.28,1.25-2.84,1.87-4.69,1.87h-23.07c-2.67,0-5.13-0.65-7.38-1.94c-2.26-1.29-4.1-3.03-5.54-5.22c-0.31-0.5-1.15-1.96-2.54-4.4
			c-1.38-2.44-3-5.27-4.84-8.5c-1.85-3.23-3.79-6.56-5.84-10c-2.05-3.43-3.95-6.39-5.69-8.88c-1.03-1.59-2.44-3.01-4.23-4.25
			c-1.79-1.24-4.44-1.87-7.92-1.87h-2.62c-0.72,0-1.33,0.25-1.84,0.75c-0.51,0.5-0.77,1.1-0.77,1.79v23.12
			c0,2.59,1.23,4.53,3.69,5.82c0.51,0.2,0.95,0.37,1.31,0.52c0.36,0.15,0.69,0.32,1,0.52c0.31,0.2,0.62,0.35,0.92,0.45
			c2.46,1.29,3.69,3.18,3.69,5.67v0.15c0,1.69-0.64,3.16-1.92,4.4c-1.28,1.25-2.84,1.87-4.69,1.87h-37.22
			c-1.85,0-3.41-0.62-4.69-1.87c-1.28-1.24-1.92-2.71-1.92-4.4v-0.15c0-2.49,1.18-4.38,3.54-5.67l3.38-1.49
			c2.46-1.29,3.69-3.23,3.69-5.82v-64.15c0-1.19-0.33-2.31-1-3.36c-0.67-1.04-1.56-1.81-2.69-2.31c-0.41-0.2-0.82-0.4-1.23-0.6
			c-0.41-0.2-0.77-0.4-1.08-0.6c-0.41-0.2-0.77-0.35-1.08-0.45c-2.36-1.19-3.54-3.08-3.54-5.67c0-1.79,0.64-3.31,1.92-4.55
			c1.28-1.24,2.85-1.86,4.69-1.86h37.22c1.85,0,3.41,0.62,4.69,1.86c1.28,1.25,1.92,2.76,1.92,4.55c0,1.19-0.33,2.31-1,3.36
			c-0.67,1.04-1.56,1.82-2.69,2.31c-0.31,0.1-0.62,0.25-0.92,0.45c-0.31,0.2-0.64,0.4-1,0.6c-0.36,0.2-0.79,0.4-1.31,0.6
			c-1.13,0.5-2.03,1.27-2.69,2.31c-0.67,1.04-1,2.16-1,3.36v21.93c0,0.6,0.25,1,0.77,1.19c0.2,0.1,0.41,0.15,0.62,0.15
			c0.31,0,0.56-0.1,0.77-0.3c1.54-1.29,3.69-3.03,6.46-5.22c2.77-2.19,5.51-4.38,8.23-6.56c2.71-2.19,5.1-4.1,7.15-5.74
			c2.05-1.64,3.13-2.51,3.23-2.61c1.54-1.39,2.31-2.93,2.31-4.62c0-0.4-0.1-1.19-0.31-2.39c-0.21-1.19-1.23-2.24-3.08-3.13
			c-2.36-1.19-3.54-3.08-3.54-5.67c0-1.79,0.64-3.31,1.92-4.55c1.28-1.24,2.84-1.86,4.69-1.86H436c1.85,0,3.41,0.62,4.69,1.86
			c1.28,1.25,1.92,2.76,1.92,4.55c0,1.19-0.31,2.34-0.92,3.43c-0.62,1.1-1.54,1.84-2.77,2.24c-3.59,1.1-6.87,2.34-9.84,3.73
			c-2.98,1.39-5.49,2.74-7.54,4.03c-2.46,1.49-4.61,2.98-6.46,4.48c-0.1,0.1-0.77,0.65-2,1.64c-1.23,1-2.77,2.24-4.61,3.73
			s-3.95,3.16-6.31,5c-2.36,1.84-4.72,3.75-7.07,5.74c-0.31,0.3-0.46,0.65-0.46,1.04c0,0.1,0,0.2,0,0.3c0.1,0.4,0.51,0.7,1.23,0.89
			c4.92,0.7,9.36,2.56,13.3,5.59c3.95,3.04,7.1,6.29,9.46,9.77c0.51,0.7,1.51,2.34,3,4.92c1.48,2.59,3.08,5.35,4.77,8.28
			c1.69,2.93,3.25,5.62,4.69,8.06c1.43,2.44,2.25,3.86,2.46,4.25c1.13,1.69,2.46,2.94,4,3.73c1.54,0.8,2.87,1.49,4,2.09
			c0.51,0.2,0.95,0.37,1.31,0.52c0.36,0.15,0.69,0.32,1,0.52C444.15,617.68,444.46,617.83,444.77,617.93z"/>
		<path style="fill:#6DBBB5;" d="M509.67,566.6c4.92,1.49,9.71,3.18,14.38,5.07c4.67,1.89,8.82,4.1,12.46,6.64
			c3.64,2.54,6.56,5.52,8.77,8.95c2.2,3.43,3.31,7.49,3.31,12.16c0,5.77-1.36,10.69-4.08,14.77c-2.72,4.08-6.36,7.38-10.92,9.92
			c-4.56,2.54-9.79,4.38-15.69,5.52c-5.9,1.14-12.07,1.72-18.53,1.72c-11.18,0-20.97-1.66-29.37-5
			c-8.41-3.33-14.41-7.88-17.99-13.65c-1.33-2.29-2.08-4.18-2.23-5.67c-0.15-1.49-0.23-2.54-0.23-3.13c0-1.89,0.41-3.75,1.23-5.59
			c0.82-1.84,2.25-3.46,4.31-4.85c2.05-1.39,4.77-2.09,8.15-2.09c2.15,0,4.1,0.45,5.84,1.34c1.74,0.89,3.28,2.01,4.61,3.36
			c1.33,1.34,2.46,2.86,3.38,4.55c0.92,1.69,1.59,3.38,2,5.07c1.02,3.98,3.41,7.11,7.15,9.4c3.74,2.29,7.97,3.43,12.69,3.43
			c2.15,0,4.36-0.15,6.61-0.45c2.25-0.3,4.31-0.82,6.15-1.57s3.38-1.76,4.61-3.06c1.23-1.29,1.84-2.88,1.84-4.77
			c0-2.29-0.67-4.28-2-5.97c-1.33-1.69-3.1-3.18-5.31-4.48c-2.21-1.29-4.82-2.46-7.84-3.51c-3.03-1.04-6.23-2.01-9.61-2.91
			c-5.54-1.39-10.82-3.11-15.84-5.15c-5.02-2.04-9.43-4.42-13.23-7.16c-3.79-2.73-6.82-5.89-9.07-9.47
			c-2.26-3.58-3.38-7.61-3.38-12.08c0-5.57,1.28-10.37,3.84-14.4c2.56-4.03,5.97-7.36,10.23-10c4.25-2.63,9.12-4.6,14.61-5.89
			c5.48-1.29,11.2-1.94,17.15-1.94c3.9,0,7.77,0.3,11.61,0.89c3.84,0.6,7.46,1.37,10.84,2.31c3.38,0.95,6.46,2.01,9.23,3.21
			c2.77,1.19,5.02,2.44,6.77,3.73c4.31,3.18,7.15,6.24,8.54,9.18c1.38,2.93,2.08,5.5,2.08,7.68c0,0.7-0.18,1.92-0.54,3.66
			c-0.36,1.74-1.72,3.51-4.08,5.3c-2.36,1.79-5.28,2.69-8.77,2.69c-1.23,0-2.69-0.2-4.38-0.6c-1.69-0.4-3.36-1.14-5-2.24
			c-1.64-1.09-3.18-2.61-4.61-4.55c-1.44-1.94-2.51-4.45-3.23-7.53c-0.72-3.18-2.46-5.77-5.23-7.76c-2.77-1.99-7.08-2.98-12.92-2.98
			c-4.82,0-8.64,1.07-11.46,3.21c-2.82,2.14-4.23,4.65-4.23,7.53c0,2.69,0.67,4.87,2,6.56c1.33,1.69,3.2,3.13,5.61,4.33
			c2.41,1.19,5.28,2.24,8.61,3.13C501.85,564.37,505.56,565.41,509.67,566.6z"/>
		<path style="fill:#6DBBB5;" d="M594.87,540.79c-1.13,0.5-2.03,1.27-2.69,2.31c-0.67,1.04-1,2.16-1,3.36v64.15
			c0,2.59,1.23,4.53,3.69,5.82c0.51,0.2,0.95,0.37,1.31,0.52c0.36,0.15,0.69,0.32,1,0.52c0.31,0.2,0.62,0.35,0.92,0.45
			c2.46,1.29,3.69,3.18,3.69,5.67v0.15c0,1.69-0.64,3.16-1.92,4.4c-1.28,1.25-2.84,1.87-4.69,1.87h-37.22
			c-1.85,0-3.41-0.62-4.69-1.87c-1.28-1.24-1.92-2.71-1.92-4.4v-0.15c0-2.49,1.18-4.38,3.54-5.67l3.38-1.49
			c2.46-1.29,3.69-3.23,3.69-5.82v-64.15c0-1.19-0.33-2.31-1-3.36c-0.67-1.04-1.56-1.81-2.69-2.31c-0.41-0.2-0.82-0.4-1.23-0.6
			c-0.41-0.2-0.77-0.4-1.08-0.6c-0.41-0.2-0.77-0.35-1.08-0.45c-2.36-1.19-3.54-3.08-3.54-5.67c0-1.79,0.64-3.31,1.92-4.55
			c1.28-1.24,2.85-1.86,4.69-1.86h37.22c1.85,0,3.41,0.62,4.69,1.86c1.28,1.25,1.92,2.76,1.92,4.55c0,1.19-0.33,2.31-1,3.36
			c-0.67,1.04-1.56,1.82-2.69,2.31c-0.31,0.1-0.62,0.25-0.92,0.45c-0.31,0.2-0.64,0.4-1,0.6
			C595.81,540.4,595.38,540.6,594.87,540.79z"/>
		<path style="fill:#6DBBB5;" d="M658.54,527.07c10.25,0,18.84,1.32,25.76,3.95c6.92,2.64,12.46,6.27,16.61,10.89
			s7.1,10.07,8.84,16.34c1.74,6.27,2.61,13.03,2.61,20.29c0,7.26-0.87,14.02-2.61,20.29c-1.74,6.27-4.69,11.71-8.84,16.34
			s-9.69,8.26-16.61,10.89c-6.92,2.64-15.51,3.95-25.76,3.95h-47.06c-1.85,0-3.41-0.62-4.69-1.87c-1.28-1.24-1.92-2.71-1.92-4.4
			v-0.15c0-2.49,1.18-4.38,3.54-5.67l3.38-1.49c2.46-1.29,3.69-3.23,3.69-5.82v-64.15c0-1.19-0.33-2.31-1-3.36
			c-0.67-1.04-1.56-1.81-2.69-2.31c-0.41-0.2-0.82-0.4-1.23-0.6c-0.41-0.2-0.77-0.4-1.08-0.6c-0.41-0.2-0.77-0.35-1.08-0.45
			c-2.36-1.19-3.54-3.08-3.54-5.67c0-1.79,0.64-3.31,1.92-4.55c1.28-1.24,2.85-1.86,4.69-1.86H658.54z M652.38,617.18
			c5.02,0,9.33-0.97,12.92-2.91c3.59-1.94,6.51-4.65,8.77-8.13c2.25-3.48,3.89-7.58,4.92-12.31c1.02-4.72,1.54-9.82,1.54-15.29
			c0-5.57-0.51-10.69-1.54-15.37c-1.03-4.67-2.67-8.75-4.92-12.23c-2.26-3.48-5.18-6.19-8.77-8.13c-3.59-1.94-7.9-2.91-12.92-2.91
			h-5.08c-0.72,0-1.33,0.25-1.84,0.75c-0.51,0.5-0.77,1.14-0.77,1.94v72.06c0,0.7,0.25,1.29,0.77,1.79c0.51,0.5,1.13,0.75,1.84,0.75
			H652.38z"/>
		<path style="fill:#6DBBB5;" d="M804.79,604.95c1.43,0.8,2.41,1.74,2.92,2.83c0.51,1.1,0.77,2.04,0.77,2.83
			c0,0.6-0.1,1.25-0.31,1.94c-0.82,2.59-1.56,4.97-2.23,7.16c-0.67,2.19-1.26,4.13-1.77,5.82c-0.51,1.39-1.36,2.49-2.54,3.28
			c-1.18,0.8-2.49,1.19-3.92,1.19h-76.43c-1.85,0-3.41-0.62-4.69-1.87c-1.28-1.24-1.92-2.71-1.92-4.4v-0.15
			c0-2.49,1.18-4.38,3.54-5.67l3.38-1.49c2.46-1.29,3.69-3.23,3.69-5.82v-64.15c0-1.19-0.33-2.31-1-3.36
			c-0.67-1.04-1.56-1.81-2.69-2.31c-0.41-0.2-0.82-0.4-1.23-0.6c-0.41-0.2-0.77-0.4-1.08-0.6c-0.41-0.2-0.77-0.35-1.08-0.45
			c-2.36-1.19-3.54-3.08-3.54-5.67c0-1.79,0.64-3.31,1.92-4.55c1.28-1.24,2.85-1.86,4.69-1.86h76.43c1.43,0,2.74,0.42,3.92,1.27
			c1.18,0.85,2.02,1.97,2.54,3.36c0.51,1.59,1.1,3.48,1.77,5.67c0.67,2.19,1.41,4.58,2.23,7.16c0.2,0.7,0.31,1.34,0.31,1.94
			c0,0.8-0.26,1.74-0.77,2.83c-0.51,1.1-1.49,2.04-2.92,2.83c-0.92,0.5-1.9,0.75-2.92,0.75c-0.51,0-1.28-0.12-2.31-0.37
			c-1.03-0.25-2.05-0.97-3.08-2.16c-1.13-1.49-2.18-2.86-3.15-4.1c-0.98-1.24-1.87-2.36-2.69-3.36c-1.74-1.99-3.84-2.98-6.31-2.98
			h-23.22c-1.85,0-3.41,0.65-4.69,1.94c-1.28,1.29-1.92,2.79-1.92,4.48v22.53c0,0.6,0.25,1.24,0.77,1.94
			c0.51,0.5,1.13,0.75,1.84,0.75h23.22c1.23,0,2.38-0.32,3.46-0.97c1.08-0.65,1.87-1.52,2.38-2.61c1.13-2.09,2.25-3.53,3.38-4.33
			c1.13-0.79,2.25-1.19,3.38-1.19c1.23,0,2.2,0.47,2.92,1.42c0.72,0.95,1.08,2.01,1.08,3.21v21.78c0,1.19-0.36,2.24-1.08,3.13
			c-0.72,0.89-1.69,1.34-2.92,1.34c-1.13,0-2.26-0.37-3.38-1.12c-1.13-0.75-2.26-2.16-3.38-4.25c-0.51-1.09-1.31-1.96-2.38-2.61
			c-1.08-0.65-2.23-0.97-3.46-0.97h-23.22c-0.72,0-1.33,0.25-1.84,0.75c-0.51,0.5-0.77,1.1-0.77,1.79v23.87
			c0,1.79,0.64,3.31,1.92,4.55c1.28,1.25,2.84,1.87,4.69,1.87h23.22c2.67,0,4.77-0.99,6.31-2.98c0.82-0.99,1.72-2.11,2.69-3.36
			c0.97-1.24,2.02-2.61,3.15-4.1c1.02-1.19,2.05-1.91,3.08-2.16c1.02-0.25,1.79-0.37,2.31-0.37
			C802.89,604.2,803.87,604.45,804.79,604.95z"/>
	</g>
</g>
<g>
</g>
<g>
</g>
<g>
</g>
<g>
</g>
<g>
</g>
<g>
</g>
<g>
</g>
<g>
</g>
<g>
</g>
<g>
</g>
<g>
</g>
<g>
</g>
<g>
</g>
<g>
</g>
<g>
</g>
</svg>
